<svg width="132" height="36" viewBox="0 0 132 36" fill="none" xmlns="http://www.w3.org/2000/svg">
<path d="M38.51 12.26H41.72V25.26H38.51V12.26ZM43 20.37C43 17.15 45 15.22 48 15.22C51 15.22 53 17.15 53 20.37C53 23.59 51.07 25.54 48 25.54C44.93 25.54 43 23.66 43 20.37ZM49.82 20.37C49.82 18.6 49.13 17.56 48.03 17.56C46.93 17.56 46.25 18.56 46.25 20.37C46.25 22.18 46.93 23.17 48.03 23.17C49.13 23.17 49.84 22.18 49.84 20.38L49.82 20.37ZM54.28 25.93H57.38C57.5211 26.2638 57.7676 26.5422 58.0818 26.7227C58.3959 26.9033 58.7606 26.9761 59.12 26.93C60.35 26.93 60.99 26.27 60.99 25.29V23.49H61C60.7351 24.0505 60.3067 24.5176 59.7713 24.83C59.2358 25.1424 58.6183 25.2853 58 25.24C55.65 25.24 54.09 23.45 54.09 20.37C54.09 17.29 55.58 15.37 58.09 15.37C58.7241 15.3361 59.3531 15.4996 59.8904 15.8381C60.4277 16.1766 60.8468 16.6734 61.09 17.26H61V15.45H64.18V25.19C64.18 27.54 62.1 29.01 59.04 29.01C56.26 29 54.48 27.73 54.3 25.94L54.28 25.93ZM61 20.37C61 18.8 60.28 17.81 59.14 17.81C58 17.81 57.3 18.81 57.3 20.37C57.3 21.93 57.99 22.85 59.14 22.85C60.29 22.85 61 22 61 20.37ZM65.45 20.37C65.45 17.15 67.45 15.22 70.45 15.22C73.45 15.22 75.45 17.15 75.45 20.37C75.45 23.59 73.51 25.54 70.45 25.54C67.39 25.54 65.47 23.66 65.47 20.37H65.45ZM72.27 20.37C72.27 18.6 71.57 17.56 70.48 17.56C69.39 17.56 68.7 18.56 68.7 20.37C68.7 22.18 69.38 23.17 70.48 23.17C71.58 23.17 72.29 22.18 72.29 20.38L72.27 20.37ZM76.75 13.08C76.736 12.753 76.8202 12.4293 76.9917 12.1506C77.1632 11.8718 77.4142 11.6508 77.7124 11.5159C78.0105 11.3809 78.3423 11.3383 78.6649 11.3935C78.9875 11.4486 79.2862 11.599 79.5226 11.8253C79.759 12.0517 79.9223 12.3435 79.9915 12.6634C80.0606 12.9833 80.0325 13.3166 79.9107 13.6204C79.7889 13.9241 79.579 14.1845 79.308 14.368C79.037 14.5515 78.7173 14.6497 78.39 14.65C78.1808 14.6553 77.9727 14.619 77.7777 14.5433C77.5827 14.4675 77.4046 14.3537 77.2539 14.2086C77.1032 14.0635 76.9828 13.8899 76.8998 13.6978C76.8167 13.5058 76.7726 13.2992 76.77 13.09L76.75 13.08ZM76.75 15.44H80V25.3H76.8L76.75 15.44ZM91.69 20.37C91.69 23.58 90.25 25.44 87.8 25.44C87.1728 25.4787 86.5488 25.324 86.0123 24.9967C85.4758 24.6694 85.0526 24.1854 84.8 23.61H84.74V28.47H81.53V15.47H84.72V17.23H84.78C85.024 16.6433 85.443 16.146 85.9798 15.806C86.5167 15.466 87.1453 15.2998 87.78 15.33C90.3 15.31 91.75 17.16 91.75 20.38L91.69 20.37ZM88.42 20.37C88.42 18.81 87.69 17.8 86.56 17.8C85.43 17.8 84.72 18.8 84.71 20.37C84.7 21.94 85.43 22.93 86.56 22.93C87.69 22.93 88.48 22 88.48 20.38L88.42 20.37ZM97.17 15.21C99.86 15.21 101.53 16.48 101.55 18.52H98.62C98.62 17.81 98.03 17.37 97.15 17.37C96.27 17.37 95.85 17.71 95.85 18.22C95.85 18.73 96.22 18.89 96.96 19.04L99.02 19.46C101.02 19.88 101.82 20.68 101.82 22.17C101.82 24.17 99.97 25.53 97.22 25.53C94.47 25.53 92.68 24.21 92.55 22.2H95.66C95.75 22.93 96.33 23.36 97.27 23.36C98.21 23.36 98.65 23.06 98.65 22.53C98.65 22 98.35 21.91 97.58 21.75L95.72 21.36C93.79 20.95 92.78 19.94 92.78 18.43C92.84 16.47 94.52 15.22 97.23 15.22L97.17 15.21ZM112.57 25.29H109.46V23.44H109.4C109.226 24.0571 108.847 24.5964 108.325 24.969C107.803 25.3417 107.17 25.5255 106.53 25.49C106.047 25.5057 105.565 25.4191 105.118 25.2357C104.67 25.0524 104.267 24.7765 103.933 24.4262C103.6 24.0758 103.345 23.6589 103.184 23.2029C103.023 22.7469 102.96 22.262 103 21.78V15.45H106.21V21.09C106.21 22.25 106.82 22.88 107.82 22.88C108.055 22.8782 108.286 22.8262 108.499 22.7273C108.712 22.6284 108.901 22.485 109.053 22.3068C109.206 22.1286 109.319 21.9197 109.383 21.6943C109.448 21.4688 109.464 21.2321 109.43 21V15.45H112.63L112.57 25.29ZM114.12 15.44H117.24V17.34H117.31C117.482 16.7313 117.852 16.197 118.36 15.8207C118.869 15.4443 119.488 15.2471 120.12 15.26C120.755 15.2048 121.388 15.3884 121.894 15.7749C122.401 16.1614 122.745 16.7231 122.86 17.35H123C123.2 16.7197 123.602 16.1731 124.145 15.7952C124.687 15.4172 125.34 15.2291 126 15.26C126.439 15.2433 126.877 15.3195 127.284 15.4836C127.692 15.6476 128.06 15.8959 128.365 16.2122C128.67 16.5284 128.904 16.9055 129.053 17.3187C129.203 17.7319 129.263 18.1719 129.23 18.61V25.3H126V19.43C126 18.43 125.53 17.87 124.62 17.87C124.418 17.8667 124.218 17.9071 124.033 17.9883C123.848 18.0696 123.683 18.1899 123.55 18.3409C123.416 18.492 123.316 18.6702 123.257 18.8633C123.199 19.0565 123.183 19.26 123.21 19.46V25.3H120.15V19.4C120.15 18.4 119.66 17.87 118.78 17.87C118.576 17.8684 118.374 17.9104 118.188 17.9932C118.001 18.0761 117.835 18.1978 117.699 18.3503C117.564 18.5028 117.463 18.6825 117.402 18.8773C117.342 19.0722 117.324 19.2777 117.35 19.48V25.3H114.14L114.12 15.44Z" fill="#394149"/>
<path d="M32.16 13.11C32.1601 11.1197 31.5591 9.17576 30.4357 7.53281C29.3122 5.88987 27.7188 4.62453 25.8641 3.90252C24.0093 3.18052 21.9798 3.03552 20.0413 3.48651C18.1027 3.9375 16.3456 4.96346 15 6.43H2.52V32.77H28.87V20.46C29.9042 19.535 30.7318 18.4023 31.2987 17.1358C31.8656 15.8693 32.1591 14.4976 32.16 13.11V13.11ZM27.09 13.11C27.092 14.0637 26.811 14.9966 26.2826 15.7906C25.7541 16.5845 25.002 17.2039 24.1215 17.5702C23.2409 17.9366 22.2715 18.0335 21.3358 17.8486C20.4002 17.6638 19.5404 17.2055 18.8653 16.5318C18.1902 15.8581 17.7302 14.9993 17.5434 14.064C17.3566 13.1288 17.4514 12.1591 17.816 11.2778C18.1805 10.3965 18.7983 9.64309 19.5911 9.11301C20.384 8.58294 21.3163 8.3 22.27 8.3C23.5466 8.3 24.7711 8.80644 25.6747 9.70821C26.5784 10.61 27.0874 11.8334 27.09 13.11V13.11ZM23.8 27.7H7.59V11.5H12.53C12.4346 12.0315 12.3844 12.5701 12.38 13.11C12.3827 15.7322 13.4255 18.2462 15.2796 20.1004C17.1338 21.9545 19.6478 22.9974 22.27 23C22.7826 22.9973 23.2943 22.9538 23.8 22.87V27.7Z" fill="#394149"/>
</svg>
